<?xml version='1.0' encoding='utf-8'?>
<svg xmlns="http://www.w3.org/2000/svg" width="274.36mm" height="214.34mm" clip-rule="evenodd" fill-rule="evenodd" image-rendering="optimizeQuality" shape-rendering="geometricPrecision" text-rendering="geometricPrecision" version="1.0" viewBox="0 0 29526 23067">
 <defs>
  <style type="text/css">
   
    .fil1 {fill:none}
    .fil0 {fill:#2B2A29}
   
  </style>
 </defs>
    <path class="fil0" d="m10054 9841c-456-1064-2735-217-1226 219 254 73 1642 238 1194 906-402 600-1504 762-1953-75-10-23 0-50 22-61 23-10 50 0 61 23 365 680 1205 655 1687 191 675-650-776-822-1035-897-1692-489 795-1598 1336-336 8 24-4 50-28 58s-50-4-58-28z"/>
   <path class="fil1" d="m10097 9826c-424-1237-3290-53-891 364 2175 378-455 2083-1096 682"/>
    <path class="fil0" d="m10750 10395c-101 2-178 15-236 37-3 6-7 11-10 17-12 21-37 30-59 20-381 281 885 1210 911 228 10-370-422-673-741-383 41-6 87-10 137-11 25 1 45 22 44 47 0 25-21 45-46 45zm-290-43c402-537 1081-106 974 462-201 1063-1653-192-974-462z"/>
   <path class="fil1" d="m10751 10349c-1159-27 415 1545 638 456 120-582-642-920-926-378"/>
    <path class="fil0" d="m12491 10349c-477-605-1336 769-244 846 224 15 302-144 398-317 11-23 38-32 61-21 22 11 31 39 20 61-116 209-216 386-486 367-1267-88-270-1744 326-988 14 21 9 49-12 63-20 15-49 9-63-11z"/>
   <path class="fil1" d="m12528 10323c-478-695-1497 826-285 917 239 18 348-153 442-342"/>
    <path class="fil0" d="m13042 10232c-21 309-4 617 3 927 0 26-21 46-46 46s-46-20-46-46c-7-335-25-625 3-954 7-24 33-38 57-30 24 7 37 33 29 57z"/>
   <path class="fil1" d="m12999 10218c-30 95 0 755 0 941"/>
    <path class="fil0" d="m13070 9662c3 15-3 32-16 42-19 16-48 14-64-6-95-123-37-161 99-125 24 6 39 31 33 56-7 23-29 37-52 33z"/>
   <path class="fil1" d="m13077 9617c-79-21-124-35-52 52"/>
    <path class="fil0" d="m13883 10400c-13-10-26-18-38-26-11 112 42 304 126 455 17-168-26-341-88-429zm-123-71c-524-222-324 1033-28 887 109-54 176-146 211-251-36-57-70-127-101-214-75-214-94-349-82-422zm292 617c192 223 467 161 600-1056 7-351 42-694 82-847l74-15c4 9 6 26 7 51l3-1 2-8-4 36c0 144-30 452-65 746-22 557 21 1189 346 1119 282-60 279-748 288-909-1-25 20-46 45-46s46 20 46 45l-24 415c-75 502-421 857-688 354-44-83-74-216-91-372-7 44-12 75-15 87-117 480-415 742-648 505-11 21-23 42-37 64-599 904-964-1280-148-856 26 3 55 21 85 51 37 24 74 52 115 86 17 18 17 47 0 65-3 3-6 5-10 7 59 129 90 304 37 479z"/>
   <path class="fil1" d="m13992 10427c-822-822-723 1314-137 756 502-478-305-1441 31-446 208 619 686 411 779-516 254-2533-16-191 36 230 94 771 745 865 729-390"/>
    <path class="fil0" d="m9535 13849c-399-962 411-2643 621-718 49-359 144-707 325-628 55 24 92 106 115 217 93-423 267-584 586 610 112 416 37 162 134 478 9 24-2 50-25 60s-50-1-59-25c-50-162-337-1333-455-1340-66 25-115 321-148 611 0 197-18 395-44 518-1 21-2 37-3 47-1-5-3-10-5-14-25 96-55 126-83 36 0-1 8-284 41-584-9-202-39-402-95-520-241 95-237 1020-240 1221l-91-2v1c-111-2876-824-808-495-14 12 22 5 49-17 62-21 13-49 6-62-16z"/>
   <path class="fil1" d="m9574 13826c-394-673 452-3053 578-74 16 397-71-1181 311-1207 259 321-19 1943 109 656 186-1863 579 328 702 625"/>
    <path class="fil0" d="m11758 13077c541 134 18-1297-288-173-179 658 513 1099 781 363l24-105c5-24 30-40 54-34 25 5 40 30 35 54l-12 54c-196 875-1205 508-970-357 373-1368 1155 484 348 284-24-7-37-33-29-57s33-37 57-29z"/>
   <path class="fil1" d="m11744 13120c656 211 40-1494-318-228-220 778 660 1136 869 387l24-107"/>
    <path class="fil0" d="m12849 12805c-1-103-16-161-40-185v1c1 26-18 47-43 48-21 1-39-12-45-31-169 157-406 863-55 917 1045 159 406-1295 198-1224-37 12-49 98-53 173 74-6 128 78 129 304-1 25-22 45-47 44s-45-22-44-47zm-127-260c76-1024 1123 802 319 1054-1015 318-619-820-319-1054z"/>
   <path class="fil1" d="m12894 12806c32-955-1141 1152 133 750 759-240-309-1997-263-933"/>
    <path class="fil0" d="m13332 11656c11 647 11 1249 126 1888 11 23 2 50-21 61-22 11-50 2-61-20-126-665-124-1257-135-1929 0-25 20-45 46-45 25 0 45 20 45 45z"/>
   <path class="fil1" d="m13287 11656c0 368 34 1711 130 1908"/>
    <path class="fil0" d="m13829 12545c-7 365-33 663 46 1023 13 22 5 49-17 62-21 13-49 5-62-17-95-400-65-663-58-1068 0-25 20-46 45-46s46 21 46 46z"/>
   <path class="fil1" d="m13783 12545c0 221-35 895 53 1046"/>
    <path class="fil0" d="m14526 12536c-193-364-1012 1020-111 959 208-14 217-267 175-491-72-127-117-252-115-345 2-95 43-75 90 7 1-3 1-6 1-9 1 5 2 10 3 14 37 66 77 168 105 280 183 356 527 683 580 297 2-25 23-44 48-43 25 2 45 23 43 49-63 451-402 240-637-71 6 204-60 388-288 403-1097 75-125-1675 190-1085 9 24-2 50-25 60s-50-1-59-25z"/>
   <path class="fil1" d="m14568 12519c-206-494-1179 1072-151 1022 595-30-175-1555 225-532 106 273 628 724 658 242"/>
    <path class="fil0" d="m13781 12218c-33 17-67 30-99 22-10 9-25 13-40 9-24-5-39-30-34-54 14-58 43-93 99-44 9-1 19-7 27-11 21-13 49-6 62 16 13 21 6 49-15 62z"/>
   <path class="fil1" d="m13757 12179c-99 59-85-56-104 26"/>
    <path class="fil0" d="m8529 8582c-601-1128-634-1838-2142-1408l-365 120c-24 9-50-4-59-27-8-24 4-50 27-59l372-122c1565-445 1629 292 2245 1448 13 21 6 50-15 63s-49 7-63-15z"/>
   <path class="fil1" d="m8568 8558c-540-866-465-2071-2562-1307"/>
    <path class="fil0" d="m6178 6719c-226 157-1259 904-428 955 186 11 332 17 500-47 23-9 50 2 59 25 10 23-1 50-24 59-62 24-123 56-189 58-1269 40-735-600 52-1136 24-8 50 4 58 28s-5 50-28 58z"/>
   <path class="fil1" d="m6163 6676c-165 57-1531 1121-196 1041 162-9 84 42 300-48"/>
    <path class="fil0" d="m3549 6683h60c10-212-40-450-84-475-5 2-13 8-16 11-181 188-669 2050 52 1609 621-380 615 1415-182 911-275-174-9 2098-110 2439-16 55-595 250-729 138-125-105-3-1596 13-1765 79-871 263-826-326-802-504 20-481 113-436-394 61-700 209-677 706-529 504 150 302-951 337-1335 76-835 609-1945 1263-884 614 995 438 1158-406 1167-10 71-26 135-49 183-11 23-38 32-61 22-22-11-32-38-21-61 19-41 32-90 40-144h-51c-26 0-46-21-46-46s20-45 46-45zm151 0c744-2 898-90 319-1029-611-991-1032 159-1094 846-56 613 220 1657-560 1375-525-190-480 274-495 791 187-17 751-81 825 57 21 38-89 1631-94 1822-20 781-215 843 584 584 53-518-166-2399 124-2492 77-25 634 424 597-425-37-863-670 262-782-485-37-247 74-1557 387-1609 140-23 205 295 189 565z"/>
   <path class="fil1" d="m3549 6728c707 0 1229 96 509-1098-629-1044-1240 113-1189 1307 94 2205-1046-410-1046 1778 1287 0 732-381 732 1830 0 732-253 938 671 619 134-388-229-2753 179-2462 690 491 702-1207 182-837-997 710 9-3043 66-1176 5 150 15 108-52 248"/>
    <path class="fil0" d="m10459 7527c-188-981 937-2127 1748-2495l379-126c25-5 48 12 53 37 4 24-12 48-37 52l-356 120c-759 344-1877 1459-1700 2384 8 24-6 49-30 57s-49-6-57-29z"/>
   <path class="fil1" d="m10502 7513c-276-857 1165-2396 2092-2562"/>
    <path class="fil0" d="m11819 4778c384-460 1225-816 1030 219-65 344-190 547-263 852-5 24-29 40-54 35-24-5-40-29-35-54 71-298 203-540 263-852 172-903-512-544-855-169-9 24-35 36-59 28-23-9-36-35-27-59z"/>
   <path class="fil1" d="m11862 4794c56-155 1535-1225 745 823-36 93-46 127-65 222"/>
    <path class="fil0" d="m13056 2350c-15 53-31 108-47 166 30 62 85 144 168 251 405 517 1106 908 1747 576 438-228 1047-691 1529-1019-320-194-2471-3-3025 3-145 2-286-15-371 4 1 6 1 13-1 19zm-81 290c-197 752-353 1752 669 1794 316 14 2966 33 2982-215 19-269 85-1497-111-1828-483 329-1102 800-1546 1031-684 355-1428-41-1863-599-54-69-97-129-131-183zm3557-370c41-28 81-54 120-79 22-11 49-2 61 20 11 23 2 50-20 61-34 22-69 45-104 69 221 375 150 1564 129 1878-27 399-2706 322-3074 307-1153-48-952-1183-731-2002-137-311 184-284 513-288 606-7 2803-219 3101 28 2 2 4 4 5 6z"/>
   <path class="fil1" d="m13012 2336c-273 876-497 2144 632 2144 383 0 3028 67 3028-261 0-2727 396-1935-3608-1935-530 0 801 1719 1883 1098 601-345 1529-1051 1725-1150"/>
    <path class="fil0" d="m9097 7513c-42-563-400-2664-912-2938-23-10-35-36-25-60 9-23 35-34 59-25 575 306 924 2410 970 3023 0 25-21 45-46 45s-46-20-46-45z"/>
   <path class="fil1" d="m9143 7513c0-562-473-2794-941-2981"/>
    <path class="fil0" d="m7794 5020c-89-313-165-1040 340-1004 215 15 375 186 516 329l-3-2 109 104c18 18 19 46 2 65-18 18-47 18-65 1-154-148-351-391-566-406-428-31-308 671-249 879 10 23-2 50-25 59-23 10-50-2-59-25z"/>
   <path class="fil1" d="m7836 5003c-255-625 112-1382 780-628l109 105"/>
    <path class="fil0" d="m4483 716c15 667 54 2274 1129 2029 469-106 482-243 1038-97 668 175 867 344 1028-491 56-289 242-1484 10-1689-346-307-2074 75-2677 84h-413c-25 2-47-17-49-42s16-47 41-49c270-2 557 6 823-15 520-41 2046-426 2383 5 192 244 31 1418-28 1723-174 899-425 750-1141 562-534-140-544-4-994 98-1160 264-1224-1384-1241-2118 0-26 20-46 45-46 26 0 46 20 46 46z"/>
   <path class="fil1" d="m4437 716c0 859 134 2527 1412 2e3 1162-479 1908 1488 1987-1980 20-868-1839-191-2823-230-34-1-401-1-419 0"/>
    <path class="fil0" d="m5461 1216c-784-134 157 1742 1017 558 300-413-870-721-1166-353-15 21-43 26-64 12s-26-43-12-63c57-70 135-120 225-154zm120-33c518-102 1272 230 971 644-1009 1388-2123-986-1002-684 18 6 30 22 31 40z"/>
   <path class="fil1" d="m5535 1186c-990-330 29 1950 980 614 349-489-963-811-1241-405"/>
    <path class="fil0" d="m6583 665c114 447 1153 146 390 22l-390-22zm-94-5l-65-3c-25 0-45-21-45-46s20-46 45-46l85 5c6-3 13-5 20-5 9 0 17 3 24 8l433 24c1e3 166-379 772-497 63z"/>
   <path class="fil1" d="m6529 611c0 753 1815 0-105 0"/>
    <path class="fil0" d="m6640 299c29-391 573-406 614-2 0 25-20 46-45 46-26 0-46-21-46-46-28-280-412-267-432-1 1 25-19 46-44 47s-46-19-47-44z"/>
   <path class="fil1" d="m6686 297c-10-322 523-337 523 0"/>
    <path class="fil0" d="m13699 8135c147-831 3211-800 3839-658 19 17 22 45 6 65-16 19-45 22-64 6-571-99-3562-133-3691 597-2 25-25 43-50 40-25-2-43-25-40-50z"/>
   <path class="fil1" d="m13744 8140c86-804 3619-748 3765-627"/>
    <path class="fil0" d="m17184 7050c1198-217 707 661 265 1360-5 25-29 41-53 36-25-4-41-28-37-53 383-684 945-1454-153-1254-25 5-49-9-55-34-6-24 9-49 33-55z"/>
   <path class="fil1" d="m17195 7094c1406-342 221 1244 209 1307"/>
    <path class="fil0" d="m18704 7094c-10 212-40 284-52 471 0 25-20 45-45 45-26 0-46-20-46-45 13-191 43-262 52-471 0-25 21-45 46-45s45 20 45 45z"/>
   <path class="fil1" d="m18659 7094c0 316-52 251-52 471"/>
    <path class="fil0" d="m18861 6624c-12 313-31 624-52 936 2 25-16 48-41 50-25 3-48-16-50-41 19-316 39-629 52-945 0-25 21-46 46-46s45 21 45 46z"/>
   <path class="fil1" d="m18816 6624c0 136-53 940-53 941"/>
    <path class="fil0" d="m19123 6310c-35 502-121 914-157 1412 0 25-21 45-46 45s-45-20-45-45c35-500 122-912 157-1412 0-25 20-46 45-46s46 21 46 46z"/>
   <path class="fil1" d="m19077 6310c0 470-157 967-157 1412"/>
    <path class="fil0" d="m19280 6101c-25 491-65 970-105 1460 2 25-17 47-42 49s-47-16-49-41c37-492 80-974 104-1468 0-25 21-46 46-46s46 21 46 46z"/>
   <path class="fil1" d="m19234 6101c0 257-106 1447-105 1464"/>
    <path class="fil0" d="m16789 10836c477-683 1242-226 1884 32 24 8 37 34 29 58-8 23-34 36-58 28-581-233-1341-695-1776-73-12 22-40 30-62 17-22-12-29-40-17-62z"/>
   <path class="fil1" d="m16829 10859c399-696 1337-113 1830 52"/>
    <path class="fil0" d="m18675 10189c665 298 383 639 79 1155-8 24-34 37-58 28-24-8-36-34-28-58 282-485 568-774-25-1040-24-9-36-35-27-59 9-23 35-35 59-26z"/>
   <path class="fil1" d="m18659 10231c767 289 131 869 52 1098"/>
    <path class="fil0" d="m20872 9476c-666-124-563 121-552 950 3 194-74 2485 51 2531 21 8 483 20 511 25 502 92 604 403 785-588 67-370 230-2888-235-2901h-525c-14 0-27-7-35-17zm91-74h465c601 17 403 2599 328 3008-194 1064-358 760-889 662-145-26-496 20-578-62-139-138-56-2317-60-2582-11-874-108-1199 734-1026z"/>
   <path class="fil1" d="m20959 9447c-828-224-679 152-679 1412 0 3083-246 1776 993 2287 649 267 725-3723 157-3699-161 7-358 0-523 0"/>
    <path class="fil0" d="m20482 9604c-2 343-40 2825 274 2878 1012 173 707 6 647-1e3 -39-636 8-998 39-1593 8-151-92-64-394-111l-312-67-53 76c-15 21-43 26-64 11-20-14-25-43-11-63l35-50c106-151 130-42 419 3 253 39 484-48 471 205-30 591-78 951-39 1583 61 1011 364 1286-749 1097-439-75-357-2568-354-2969 0-25 20-46 46-46 25 0 45 21 45 46z"/>
   <path class="fil1" d="m20437 9604c0 461-56 2878 313 2923 1156 143 680 101 680-1616 0-1596 360-957-714-1250l-70 100"/>
    <path class="fil0" d="m20766 12766c329-406 316-19 102 71-14 4-28 1-39-6-16 11-38 11-54-1-20-15-24-44-9-64z"/>
   <path class="fil1" d="m20802 12793c260-349 189-40 53 0"/>
    <path class="fil0" d="m8185 12783c-1027-283-3044 748-3310 1671-23 78-20 90-26 169 0 25-20 46-46 46-25 0-45-21-45-46 12-155 33-252 111-391 526-935 2295-1825 3350-1533 23 9 35 36 25 59-9 24-36 35-59 25z"/>
   <path class="fil1" d="m8202 12741c-976-399-3399 934-3399 1882"/>
    <path class="fil0" d="m4372 13711c109 224 392 1079 533 1134 239 94 723-782 748-820 13-22 41-29 62-16 22 13 29 41 16 62-82 126-531 987-860 858-203-79-441-892-577-1171-13-21-6-49 15-62 22-14 50-7 63 15z"/>
   <path class="fil1" d="m4333 13734c430 705 334 2048 1359 314"/>
    <path class="fil0" d="m196 15617c-8 288-135 2296 216 2307 1025 33 1335-67 2405 75 3 0 592 143 673 73 314-271 293-2813-1242-2776-692 17-1112 77-1764 309-22 11-49 2-61-20-11-22-2-50 20-61 670-240 1089-302 1801-319 1256-30 1590 1519 1472 2496-81 675-320 467-911 388-1065-141-1371-41-2393-74-487-16-317-2039-307-2398 0-26 20-46 45-46s46 20 46 46z"/>
   <path class="fil1" d="m150 15617c0 449-154 2352 262 2352 1865 0 1015-115 3032 162 425 58 474-2959-1198-2880-453 21-1299 69-1782 313"/>
    <path class="fil0" d="m91 18023c22 536 208 1262 881 1170 730-100 2825 80 3212-162 312-195-425-840-596-721l-9 7c-18 17-47 15-64-3-17-19-16-47 3-64 22-18 32-26 59-37 271-100 1028 601 689 871-379 303-2539 98-3274 198-747 102-968-654-992-1262 1-25 22-45 47-44s45 22 44 47z"/>
   <path class="fil1" d="m46 18022c-13 384 208 1374 936 1216 1053-229 4660 461 2815-946-55-42-177-74-248-9"/>
    <path class="fil0" d="m607 18292c317-100 169-66 448 53 23 9 35 35 27 59-9 23-35 35-59 26-106-45-108-44-196-106-26-1-184 52-193 55-24 7-49-6-57-30-7-24 6-50 30-57z"/>
   <path class="fil1" d="m621 18335c331-103 129-55 418 53"/>
    <path class="fil0" d="m1444 18344c192-67 209-106 356 9 19 16 22 44 6 64-16 19-45 22-64 6-111-86-95-53-271 8-24 8-50-6-57-30-8-24 6-49 30-57z"/>
   <path class="fil1" d="m1457 18388c196-61 192-101 314 0"/>
    <path class="fil0" d="m2123 18292c283-82 138-46 436-107 25 3 44 25 42 50-3 25-25 43-50 41-265 59-131 25-401 103-24 7-49-6-57-30-7-24 6-50 30-57z"/>
   <path class="fil1" d="m2137 18335c48-15 364-109 418-104"/>
    <path class="fil0" d="m2932 18239s209 52 209 52c25 6 40 31 34 56-7 24-31 39-56 33l-209-53c-24-6-39-30-33-55 6-24 31-39 55-33z"/>
   <path class="fil1" d="m2921 18283l209 52"/>
    <path class="fil0" d="m815 18711c147-52 126-56 276-55 25 0 46 20 46 45 0 26-21 46-46 46-137-1-106 1-247 50-24 8-49-5-57-29s5-50 28-57z"/>
   <path class="fil1" d="m830 18754c189-63 114-53 261-53"/>
    <path class="fil0" d="m1719 18708h156c26 0 46 21 46 46s-20 45-46 45h-156c-26 0-46-20-46-45s20-46 46-46z"/>
   <path class="fil1" d="m1719 18754h156"/>
    <path class="fil0" d="m3064 18815s156-52 156-52c24-8 50 5 58 29 8 23-5 49-29 57l-157 53c-23 7-49-5-57-29s5-50 29-58z"/>
   <path class="fil1" d="m3078 18858l157-52"/>
    <path class="fil0" d="m562 15878c33 2e3 573 1838 2522 1837-6-429-23-1947-612-1808-455 107-1308 148-1799 173-25 0-46-20-46-45s21-46 46-46c475-25 1327-65 1765-167 646-149 689 1023 718 1420 50 675 131 566-412 564-1869-8-2243-80-2273-1928 0-25 20-45 45-45s46 20 46 45z"/>
   <path class="fil1" d="m516 15878c0 1905 448 1882 2614 1882 0-437-63-2138-675-1895-134 53-1542 170-1782 170"/>
    <path class="fil0" d="m9055 14770c-287 160-111 2601-30 2967 13 22 6 50-16 62-21 13-49 6-62-15-104-426-295-2898 74-3098 24-10 50 2 60 25 9 23-2 50-26 59z"/>
   <path class="fil1" d="m9038 14728c-305 123-162 2848-52 3032"/>
    <path class="fil0" d="m8456 17192c-3 228 36 949 391 1e3 347 49 484-997 512-1170 4-25 27-42 52-39 24 4 42 26 39 51-43 262-161 1214-561 1249-481 42-527-837-523-1105 4-25 27-42 52-38s42 28 38 52z"/>
   <path class="fil1" d="m8411 17185c-124 774 704 1997 993-157"/>
    <path class="fil0" d="m8158 22427c-150-641-228-1845 522-2191 1007-465 1458 2343 1230 2427-16 6-22 5-39 5-25-2-44-24-41-49 2-25 23-43 48-42 64-106-269-2670-1160-2259-699 324-611 1490-473 2082 8 24-5 50-30 57-24 8-49-6-57-30z"/>
   <path class="fil1" d="m8202 22414c-610-1957 1359-3771 1730 91 3 31 2 123-57 118"/>
    <path class="fil0" d="m8182 22225c814 773 1374 1222 1701-30 5-25 30-40 54-35 25 5 40 30 35 54-352 1346-1e3 887-1855 75-17-18-17-47 0-64 18-18 47-18 65 0z"/>
   <path class="fil1" d="m8150 22257c788 788 1495 1232 1777-52"/>
    <path class="fil0" d="m8675 19374c-34 4-67 10-97 16-72 49-134 107-180 170-12 22-40 30-62 18-21-13-29-40-17-62 7-10 15-20 22-30-582 418 791 1691 1062 214 91-498-342-545-688-387 2 4 3 8 3 13 2 25-17 47-43 48zm-133-69c420-277 1069-234 951 412-336 1830-2230-131-951-412z"/>
   <path class="fil1" d="m8672 19329c-1408 91 441 2197 776 379 144-781-881-540-1089-170"/>
    <path class="fil0" d="m16566 13532c707 68 1980 1219 2034 1932-2 25-25 43-50 41s-43-24-41-49c-50-619-1284-1769-1940-1833-25 1-46-19-47-44s19-46 44-47z"/>
   <path class="fil1" d="m16567 13578c618-21 2031 1367 1987 1882"/>
    <path class="fil0" d="m17917 15391c606 694 866 712 905-140 0-26 21-46 46-46s46 20 46 46c-46 985-443 936-1082 173-9-24 3-50 26-59 24-9 50 3 59 26z"/>
   <path class="fil1" d="m17875 15408c4 10 993 1292 993-157"/>
    <path class="fil0" d="m19344 17485c-30-3-57-9-81-15 28 18 57 30 85 36-1-7-3-14-4-21zm69-601c215-65 427 91 275 824-55 265-169 342-292 309-37 101-90 128-166-10-32-58-58-113-80-166-71-7-105-82-113-189-161-310-193-707 180-750 69-114 143-150 196-18zm-67 721c-57-9-123-45-197-115 7 58 23 129 53 213 66-14 124-40 144-98zm-291-222c-33-49-46-94-43-134-6 71 6 149 30 227 4-31 8-61 13-93zm-43-135c6-63 51-112 115-144 9-26 18-52 28-76-91 42-134 123-143 220zm248-185c34-6 70-8 105-7-3-20-7-38-11-55l-16-3c-28 18-55 40-78 65zm197 3c17 4 35 9 51 14-2-19-5-39-9-59l-51-7c3 16 6 34 9 52zm185 332c-31 70-90 153-184 248-8 97-19 193-36 273 76 1 142-64 177-229 23-113 37-210 43-292zm-264 324c-50 45-93 76-131 95l6 15c33 32 68 56 101 71 10-48 18-110 24-181zm90-563c2 18 4 36 5 55 2 19 2 96-2 197 7 5 12 13 15 21 26-52 39-133 31-253-13-8-29-15-49-20zm-286 52c65-23 145 19 206 141-2-70-5-139-11-201-49 1-109 9-180 25-2 0-4 1-5 1-4 11-7 23-10 34zm126 173c-36-68-81-95-115-79 19 34 56 62 115 79z"/>
   <path class="fil1" d="m19443 17447c-936 30 533-1368 200 252-199 971-1357-1008-104-718 297 1257-1182 1-39 147 488 63-745 1383-362 71 383-1309 384 1571 78 657-423-1265 660-142-87-96"/>
    <path class="fil0" d="m19259 17640c-57-48-103-94-140-136-18 36-34 72-47 106 24-2 47 15 50 39 68 350 223 134 312-54 14-106 15-212-2-290-48-27-101-46-153-53-39 49-78 106-112 165 33 44 80 94 146 150 21 15 25 43 10 63-15 21-43 25-64 10zm-186-194c-3-5-6-10-9-15-8 11-15 22-22 33-1 14-1 29-1 44 10-21 21-42 32-62zm82-332c24-5 50-7 77-6 7-5 13-10 20-13-38-8-70-1-97 19zm500 569c-24 120-82 260-187 421-185 281-343 148-432-107-194-17-310-162-124-495-10-120 19-203 71-256 49-210 171-329 390-185 147-124 269-119 245 189-1 15-3 30-5 45 39 58 62 114 72 168 25 69 20 145-30 220zm-225-580c32 26 66 57 102 93l1 2c2-113-41-131-103-95zm75 742c-25 18-51 36-78 51-59 173-151 281-258 199 60 82 137 90 223-42 49-74 86-144 113-208zm-186 104c-39 15-78 26-116 35 42 28 81 11 116-35zm179-598c1 19 2 39 3 59 3-16 7-32 10-47-4-4-9-8-13-12zm-19 339c-2 12-5 25-7 38 31-24 56-49 74-73 7-13 14-25 19-37 4-41 2-79-3-114-23 65-51 129-83 186zm-519 23c-7-20-13-39-19-58-36 100-29 168 5 210-7-42-1-94 14-152zm167-358l36-54c-12 15-25 30-39 48l3 6z"/>
   <path class="fil1" d="m19286 17603c-868-638 908-683 144 476-448 678-738-1662 70-850 642 645-1176 1177-466 165 712-1014 428 1257 57 514-629-1256 1260-535 248-52-1001 477 486-1687 200-409-53 237-390 719-462 209"/>
    <path class="fil0" d="m19557 17932c13-885 81-1790 102-2681 0-26 20-46 46-46 25 0 45 20 45 46-19 848-45 1810-107 2652 8 23-5 49-28 57-24 8-50-4-58-28z"/>
   <path class="fil1" d="m19600 17917c-1-4 105-2375 105-2666"/>
    <path class="fil0" d="m19784 15475c609 381 1509 286 1954-229 46-54 41-53 66-110 5-25 30-40 54-34 25 5 40 30 35 54-34 80-27 81-87 150-476 554-1426 649-2076 243-20-15-25-44-10-64s43-25 64-10z"/>
   <path class="fil1" d="m19757 15512c834 612 2019-55 2091-366"/>
    <path class="fil0" d="m21723 15283c-514 588-526 1019-561 1798 0 25-21 45-46 45s-45-20-45-45c36-813 53-1251 589-1863 18-18 47-17 64 1 18 18 17 47-1 64z"/>
   <path class="fil1" d="m21691 15251c-481 466-575 1186-575 1830"/>
    <path class="fil0" d="m20382 17639c-97-230-148-498 60-607 32-39 74-56 126-41 23-4 48-7 74-8 78-209 134-209 166-105 68-40 133-26 181 71 2 0 4-1 6-2 278-111 252 99 121 345 11 93-10 196-55 295-34 271-166 357-296 333-25 15-51 28-78 40-33 43-71 64-116 52-14-4-27-11-40-21-81-15-115-96-117-210-13-44-24-92-32-142zm448-646c14 3 28 7 41 11 13-7 26-14 40-20-22-25-50-32-84-13 1 7 2 15 3 22zm209 113c22 26 40 55 53 87 73-161 20-204-76-175 8 26 16 55 23 88zm-581 390c8-30 17-60 27-90 5-19 12-38 20-57 22-60 48-119 75-174 7-24 14-47 20-68-23-18-43-26-60-24-13 5-25 11-36 19-52 55-63 223-46 394zm175 362c-3-2-6-4-8-6-32 11-61 12-83 0 8 16 16 30 25 42 14 3 31 3 48 0 6-10 12-22 18-36zm84-760c12-9 23-17 36-25-6-2-12-3-18-4-6 9-12 18-18 28v1zm249 431c-60 83-126 159-189 217-7 28-15 53-23 78 67-53 138-132 201-231 4-21 8-42 11-64zm-127-410c2 58 1 121-2 186 12 53 9 104-10 150-6 55-13 109-22 161 14-17 30-36 46-57 51-65 94-124 130-177 2-61 1-121-4-176-33-40-77-73-125-97-5 3-9 6-13 10zm-137 467c-34 19-74 35-120 46v1c9 33 24 65 46 96 8 11 16 21 23 30 5-2 11-5 16-9 13-48 25-105 35-164zm-106-51c56-17 100-43 127-77 7-51 13-102 18-153-7-20-16-41-30-63-25 31-49 63-69 97-19 68-35 136-46 196z"/>
   <path class="fil1" d="m20489 17760c-713-1142 1321-813 313 57-825 712 95-1816 214-545 121 1296-1176 183-4-283 608-241-809 1751-405 262 388-1430 121 1670-157 409-291-1316 869-116 39-57"/>
    <path class="fil0" d="m20654 17617c-1-5-11-45-23-101l-7 17c-9 85 40 145 91 149 36-36 70-76 96-117 1-5 2-11 3-18 8-74 11-136 10-187-9-24-19-47-31-69-17 13-33 26-47 39-17 39-35 78-47 107 19 74 38 136 42 153 8 24-5 49-30 57-24 7-49-6-57-30zm-55-284c-2-10-3-20-4-29-139 210-260 590-96 625 240 52 345-73 368-238-21 40-49 65-80 77-48 45-109 85-185 116-194 78-164-125-77-340-5-66 15-140 74-211zm-14-153c-2-124 29-202 142-101 81-29 149 6 176 143 30 42 48 109 47 187 157 453-318 789-560 564-182-169-2-591 195-793zm57 565c-27-17-51-41-71-69-14 49-22 93-18 125 27-13 58-32 89-56zm20-476l3-3c7-12 15-23 22-34 7-18 14-35 20-53-2 9-2 16 0 23 4-5 8-11 12-16-4-3-7-5-10-8-17 10-35 25-53 45 1 14 3 30 6 46z"/>
   <path class="fil1" d="m20698 17603c-414-1326 817 374-161 375-545 1 421-1615 322-427-36 431-589-16-57-322 464 191-678 1185-161 165 240-473 15 10 5 53"/>
    <path class="fil0" d="m12597 14473c731 109 1273 1730 1349 2346 0 25-20 46-45 46s-46-21-46-46c-70-559-605-2156-1264-2255-25-1-44-23-43-48 2-25 24-44 49-43z"/>
   <path class="fil1" d="m12594 14519c606 39 1307 1770 1307 2300"/>
    <path class="fil0" d="m13362 16634c575 761 1040 1503 1375 135 41-170 43-250 60-424 2-25 24-44 49-42s44 24 41 49c-17 182-18 262-62 440-371 1511-955 665-1535-101-16-20-12-49 8-64 19-16 48-13 64 7z"/>
   <path class="fil1" d="m13326 16662c485 613 1041 1663 1455 118 37-139 49-288 61-431"/>
    <path class="fil0" d="m13887 18536c-201-50-334-4-409 91l-2 22c0 23-17 42-39 45-185 404 310 1296 909 548 449-560-697-1548-853-786l-4 41c98-69 238-95 426-48 24 7 37 33 29 57-7 24-33 37-57 30zm-498 68l14-166c199-962 1652 281 952 928-770 712-1244-326-966-762z"/>
   <path class="fil1" d="m13901 18492c-959-299-537 1749 423 841 687-649-894-1912-894-684"/>
    <path class="fil0" d="m14365 18911c4 345 30 1173-103 1836h1c25-2 47 17 49 42s-16 47-41 49c-10-1-19-3-28-4-162 706-524 1183-1323 589-567-422-147-1776 813-1040 126 96 284 268 451 339 130-654 94-1491 90-1811 0-26 20-46 45-46s46 20 46 46zm-200 1900c-187-69-335-239-487-356-863-662-1173 546-705 894 717 533 1045 109 1192-538z"/>
   <path class="fil1" d="m14319 18911c0 710 176 3566-1373 2475-548-386-107-1855 950-798 48 48 302 210 371 205"/>
    <path class="fil0" d="m15044 17917v1150c0 26-20 46-45 46s-46-20-46-46v-1150c0-25 21-45 46-45s45 20 45 45z"/>
   <path class="fil1" d="m14999 17917v1150"/>
    <path class="fil0" d="m14619 18449c547-88 771 38 1187-253 19-16 48-14 64 5s14 48-5 65c-458 319-642 177-1219 270-24 7-49-6-57-30-7-24 6-50 30-57z"/>
   <path class="fil1" d="m14633 18492c444-138 803 80 1202-261"/>
    <path class="fil0" d="m14712 6325c1577-1037 1919-1069 3719-1348 437-68 733-145 1154-279 24-8 50 5 58 29 8 23-4 49-28 58-427 134-727 213-1170 282-1785 277-2117 304-3682 1333-20 14-49 9-63-12s-9-49 12-63z"/>
   <path class="fil1" d="m14737 6362c2325-1599 3135-1023 4863-1621"/>
    <path class="fil0" d="m19238 4173c1129 138 1248 294 525 1003-131 129-203 191-276 361-6 24-31 39-55 33-25-6-39-31-33-56 292-692 1580-1037-169-1250-25-2-44-25-41-50 2-25 24-43 49-41z"/>
   <path class="fil1" d="m19234 4219c1911 179 333 824 209 1307"/>
    <path class="fil0" d="m20788 3932c141 258 380 845 657 976 24 8 36 34 28 58-8 23-34 36-58 28-325-153-537-707-703-1011-14-21-8-49 13-64 21-14 49-8 63 13z"/>
   <path class="fil1" d="m20750 3957c141 208 387 892 680 994"/>
    <path class="fil0" d="m21834 3877c-148 313-699 2102-823 2113-26-1-45-22-45-47 0-15 8-29 20-37 140-211 557-1630 772-2078 13-21 42-27 63-14 21 14 27 42 13 63z"/>
   <path class="fil1" d="m21796 3853c-153 235-723 2094-784 2091"/>
    <path class="fil0" d="m22165 4159c-669 88 323 1254 370-151 4-124-277-185-275-54 2 25-17 47-42 49s-47-17-49-42c-4-272 465-191 457 50-54 1654-1384 177-467 58 25-2 47 17 48 42 2 25-17 47-42 48z"/>
   <path class="fil1" d="m22162 4114c-790 55 357 1457 418-105 8-190-381-244-366-52"/>
    <path class="fil0" d="m22641 4625c111-391 129-531 301-886 257-53-299 1824 415 516 53-268 191-546 278-614 185-144-41 353-41 353-66 134-125 249-179 347-43 316 107 549 766 203 22-11 49-2 61 20 11 23 2 50-21 61-668 352-874 161-885-144-496 834-440-37-420-476-63 215-126 428-187 644-7 24-32 39-57 32-24-7-38-32-31-56z"/>
   <path class="fil1" d="m22685 4637c702-2510-266 1505 736-405 852-1624-836 846 466 501 96-26 220-102 314-148"/>
    <path class="fil0" d="m24737 4090c1-1 14-24 34-61 14-620 213-1558 590-1603 423-51-279 1241-489 1613 7 140 29 246 58 446 162 28 295-33 379-180 10-23 37-34 60-24s34 37 24 60c-104 182-314 298-518 225-64-22-98-183-104-407-6 0-13-2-19-6-21-13-28-41-15-63zm133-243c235-442 685-1328 504-1330-292-4-494 1035-502 1269-1 21-2 41-2 61z"/>
   <path class="fil1" d="m24776 4114c1651-2701-327-1719 114 409 168 59 394-42 461-200"/>
    <path class="fil0" d="m24403 3442c559-88 749-103 1314-105 25 0 46 20 46 45s-21 46-46 46c-560 2-744 16-1299 104-25 4-49-13-53-38s13-48 38-52z"/>
   <path class="fil1" d="m24410 3487c620-103 693-105 1307-105"/>
    <path class="fil0" d="m25098 4468c1-4 291-1241 402-942 96 260-267 1707 319 617l206-420 84 9c40 281-70 848 336 194 21-35 85-140 162-274 40-509 346-1067 488-963 65 48-148 598-401 1046 5 281 95 521 306 560 299 55 369-1203-118-690-57 60-24 109 21 166 16 20 13 48-6 64-20 16-49 14-65-6-74-97-109-188-15-288 639-676 655 1016 139 837-223-77-323-270-348-499-271 438-558 688-587 54-765 1502-606 247-600-235-86 249-222 749-235 794-7 25-32 39-56 32s-39-32-32-56zm1615-1003c144-259 294-552 316-677-155 107-272 387-316 677z"/>
   <path class="fil1" d="m25142 4480c802-2869-317 1957 923-736 4-8-90 1044 419 206 1480-2436-353-637 292 221 569 755 742-1266 74-598-77 77-40 158 18 227"/>
    <path class="fil0" d="m27591 3760c-7 31-31 120-18 156 237-33 682-925-14-417-429 313-230 1150 531 478 18-18 47-18 65 0 17 18 17 47 0 65-963 849-1281-493-373-752 769-220-482 1332-279 446 7-24 32-38 56-32s39 31 32 56z"/>
   <path class="fil1" d="m27547 3748c-201 762 999-783 105-357-709 338-295 1384 470 618"/>
    <path class="fil0" d="m24194 2336c-3 474-144 2525 32 2740 201 244 1667-56 1991-90 750-80 1242-103 2015-61 957 51 981-172 1138-1211 331-2182-613-1698-2417-1538-657 59-1138 45-1818 166-797 142-88 37-878 144-25 2-47-16-49-41-2-26 17-47 42-49 777-106 75-3 868-144 684-121 1167-108 1827-167 1816-161 2862-641 2516 1642-163 1072-214 1343-1236 1289-854-46-1436-10-2266 90-341 42-1561 322-1803 27-212-256-56-2279-53-2797 0-25 21-45 46-45s45 20 45 45z"/>
   <path class="fil1" d="m24149 2336c0 3781-769 2851 3023 2615 1747-109 2016 646 2296-1621 246-1989-1164-1198-3276-1155-842 17-1354 220-1939 266"/>
    <path class="fil0" d="m24550 13567c-1625-559-1129 2671 1034 1868 2010-747 528-3518-1377-2161l-178 152c152-32 336-18 555 57 23 10 35 36 25 59-9 24-36 35-59 25zm-813 9c1-11 5-22 14-31l403-345c2018-1437 3598 1527 1461 2321-1819 675-2524-1341-1878-1945z"/>
   <path class="fil1" d="m24567 13525c-1634-667-1292 2799 1032 1953 2210-805 325-4042-1816-1900"/>
    <path class="fil0" d="m23716 13796c638-23 2374 369 2637-387 6-24 31-39 55-32 25 6 39 31 33 55-294 846-2020 442-2696 450-24 8-49-4-58-28-8-24 5-50 29-58z"/>
   <path class="fil1" d="m23730 13839c213-73 2449 428 2667-418"/>
    <path class="fil0" d="m23572 14473c542 13 652 95 1056 127 436 35 906-249 1277-435 22-12 50-4 62 18 11 23 3 50-19 62-1455 729-1014 351-2373 319-25 1-46-19-47-44s19-46 44-47z"/>
   <path class="fil1" d="m23574 14519c1140-37 875 480 2352-314"/>
    <path class="fil0" d="m24813 12924c-353 640-490 1208-257 1935 96 300 216 524 496 662 24 9 37 35 29 58-9 24-35 37-58 28-314-154-445-382-554-721-243-759-98-1348 270-2015 15-20 43-25 64-10 20 15 25 43 10 63z"/>
   <path class="fil1" d="m24776 12898c-667 926-345 2456 262 2666"/>
    <path class="fil0" d="m25273 12913c523 486 589 1755 368 2375l-148 302c-14 21-42 26-63 12s-26-43-12-63l136-280c205-575 152-1819-334-2272-20-15-25-43-10-64 15-20 43-25 63-10z"/>
   <path class="fil1" d="m25247 12950c451 328 669 1945 209 2614"/>
    <path class="fil0" d="m18115 12865c766 590 3232 1989 4173 1254 18-17 47-16 64 3 17 18 16 47-2 64-999 780-3482-626-4297-1255-19-17-20-46-3-64 18-19 47-20 65-2z"/>
   <path class="fil1" d="m18084 12898c597 561 3407 2017 4235 1255"/>
    <path class="fil0" d="m22171 13638c783 232 688 750 224 1335-115 146-101 126-223 217-24 6-49-9-54-34-6-24 9-49 34-54l49-46c483-498 752-1093-49-1329-24-6-40-30-35-54 6-25 30-41 54-35z"/>
   <path class="fil1" d="m22162 13682c1165 248 80 1446 0 1464"/>
</svg>